<?xml version="1.0" encoding="utf-8"?>
<!-- Generator: Adobe Illustrator 25.0.0, SVG Export Plug-In . SVG Version: 6.00 Build 0)  -->
<svg version="1.1" id="Calque_1" xmlns="http://www.w3.org/2000/svg" xmlns:xlink="http://www.w3.org/1999/xlink" x="0px" y="0px"
	 viewBox="0 0 841.89 595.28" style="enable-background:new 0 0 841.89 595.28;" xml:space="preserve">
<style type="text/css">
	.st0{fill:#E7AE43;}
</style>
<path class="st0" d="M536.21,460.66c-0.51-1.18-1.54-2.39-1.46-3.52c0.6-8.23,2.46-16.24,1.32-24.76
	c-0.76-5.66,1.35-11.71,2.18-17.58c-0.66-0.18-1.31-0.36-1.97-0.53c-0.77,2.03-2.06,4.03-2.2,6.1c-0.25,3.92,1.35,8.34,0.05,11.73
	c-2.84,7.41-1.54,14.14-0.19,21.53c0.9,4.96-1.6,10.54-2.93,17.67c-1.31-2.68-2.54-4.07-2.59-5.49c-0.19-5.83,0.06-11.67-0.03-17.51
	c-0.04-2.7-0.59-5.39-0.72-8.09c-0.33-7.04-0.67-14.08-0.79-21.13c-0.21-12.75-0.25-25.5-0.42-38.25c-0.02-1.41-0.45-2.82-0.69-4.23
	c-0.73-0.09-1.45-0.18-2.18-0.27c-1.05,4.47-2.44,8.9-3.06,13.42c-0.74,5.39-1.25,10.89-1.09,16.32c0.25,8.53-0.85,16.81-2.82,25.08
	c-0.99,4.17-0.87,8.64-2.16,12.68c-1.03,3.25-3.13,6.31-5.33,8.98c-1.75,2.12-3.88,1.35-4.59-1.35c-0.66-2.5-0.95-5.11-1.29-7.68
	c-2.78-20.88-0.26-41.68,1.95-62.35c3.03-28.3,6.85-56.54,11.2-84.67c4.59-29.66,10.22-59.17,15.35-88.75
	c0.2-1.15,0.03-2.36,0.03-4.75c-5.27,1.53-10.22,2.62-14.91,4.4c-14.71,5.59-29.88,10.37-43.81,17.52
	c-12.99,6.68-24.7,15.89-36.81,24.22c-3.67,2.53-7.06,5.31-11.81,3.66c-1.24-0.43-2.85-1.63-3.04-2.7c-0.19-1.08,0.89-2.8,1.9-3.61
	c5.09-4.06,10.39-7.86,15.49-11.9c0.9-0.71,1.24-2.13,0.88-4.06c1.46-0.4,3.03-0.58,4.35-1.26c1.53-0.78,2.84-1.99,4.24-3.02
	c-1.21-1.56-2.23-4.24-3.65-4.48c-5.35-0.88-4.94-4.44-3.87-7.77c1.15-3.56,3.22-6.83,4.94-10.2c0.57-1.13,1.3-2.18,2.38-3.98
	c-2.49,0-4.01,0-6.84,0c2.05-2.11,3.14-4.05,4.78-4.79c11.01-4.99,21.95-10.23,33.29-14.37c8.75-3.2,17.99-5.14,27.1-7.23
	c9.29-2.12,18.63-4.14,28.06-5.41c5.03-0.68,6.61-3.3,7.62-7.55c3.38-14.18,6.9-28.33,10.45-42.47c2.12-8.43,2.19-8.41,10.37-13.34
	c6.53,5.83-2.5,10.41-1.2,16.13c3.33-1.27,7.32-1.18,8.13-6.17c0.1-0.64,2.97-1.66,3.98-1.21c10.18,4.6,11.85,4.13,16.72-5.77
	c0.83-1.69,1.46-3.57,1.77-5.43c0.96-5.84,3.91-9.84,10.86-11.77c0.17,2.47,0.87,4.8,0.39,6.86c-3.19,13.85-6.59,27.65-10.01,41.45
	c-1.38,5.57-3.01,11.07-4.44,16.63c-0.41,1.6-0.54,3.27-0.88,5.49c6.54,0,12.41,0.05,18.28-0.01c14.24-0.14,28.51-0.93,42.72-0.33
	c13.57,0.57,27.12,2.33,40.61,4.02c13.85,1.74,27.65,3.89,41.42,6.17c5.04,0.83,9.93,2.54,14.34,3.7c0.64,3,1.28,5.98,1.95,9.13
	c-3.19-0.06-6.23,0.47-8.05-4.37c-0.86-2.28-5.43-3.6-8.56-4.46c-3.09-0.85-6.5-0.58-9.97,0.13c1.75,0.45,3.49,0.89,6.26,1.6
	c-2.29,0.78-3.76,1.29-6,2.06c1.12,2.39,2.21,4.71,3.28,7.01c-6.99,3.06-13.65,4.58-21.3,1.04c-3.73-1.72-8.88-0.22-13.37-0.48
	c-2.92-0.17-5.79-0.92-8.7-1.31c-0.81-0.11-1.67,0.14-2.51,0.2c-6.77,0.46-13.54,0.97-20.31,1.34c-8.25,0.45-16.52,0.55-24.75,1.23
	c-12.49,1.02-24.97,2.26-37.42,3.71c-5.25,0.61-10.41,2.02-16.56,3.25c-1.67,7.34-3.83,15.54-5.36,23.85
	c-3.58,19.44-7.4,38.85-10.11,58.42c-3.58,25.8-6.92,51.68-9.03,77.64c-2.56,31.48-3.8,63.07-5.49,94.62
	c-0.69,12.84-1.11,25.69-1.55,38.54c-0.2,5.74-2.01,10.83-5.65,15.2c-0.58,0.7-2.49,1.3-2.93,0.93c-1.47-1.24-3.52-2.91-3.57-4.48
	c-0.12-3.94,1.11-7.91,1.11-11.87c0-7.82-0.51-15.65-0.68-23.47c-0.03-1.21,0.64-2.44,0.98-3.65
	C536.95,460.53,536.58,460.59,536.21,460.66z"/>
<g>
	<g>
		<g>
			<g>
				<path d="M139.52,329.87c-0.82,3.79-1.61,7.82-2.38,12.08c-1.29,0-3.64,0.32-7.04,0.96c-4.35,0.83-7.58,1.24-9.66,1.24
					c-5.17,0-9.71-1.07-13.61-3.2c-3.9-2.13-6.94-5.18-9.12-9.15c-2.18-3.97-3.27-8.38-3.27-13.24c0-4.79,1.15-9.2,3.45-13.24
					c2.3-4.04,5.47-7.18,9.51-9.44c4.04-2.25,8.58-3.38,13.64-3.38c2.13,0,4.99,0.24,8.57,0.71c2.79,0.38,4.82,0.57,6.09,0.57
					c0.29,3.32,0.82,7.35,1.56,12.08c0,0.38-0.36,0.57-1.09,0.57c-0.45,0-0.73-0.19-0.82-0.57c-0.82-3.22-2.57-5.87-5.27-7.96
					c-2.7-2.08-5.81-3.13-9.32-3.13c-5.33,0-9.8,2.3-13.42,6.9c-3.62,4.6-5.43,10.23-5.43,16.88c0,6.47,1.79,11.97,5.38,16.51
					c3.58,4.54,7.96,6.81,13.13,6.81c8.1,0,13.84-4,17.22-12.01c0.16-0.38,0.46-0.57,0.92-0.57
					C139.2,329.3,139.52,329.49,139.52,329.87z"/>
				<path d="M198.31,342.02c0,0.66-0.18,0.99-0.54,0.99c-1.54,0-3.37-0.07-5.48-0.21c-2-0.14-3.69-0.21-5.07-0.21
					c-1.38,0-2.98,0.07-4.8,0.21c-1.91,0.14-3.62,0.21-5.14,0.21c-0.36,0-0.54-0.33-0.54-0.99c0-0.59,0.19-0.91,0.58-0.96
					c1.91-0.24,3.32-0.56,4.25-0.98c0.93-0.42,1.53-0.96,1.79-1.64c0.26-0.68,0.39-1.81,0.39-3.4V319.2h-25.96v15.85
					c0,1.59,0.13,2.72,0.39,3.4c0.26,0.68,0.86,1.22,1.79,1.64c0.93,0.42,2.36,0.74,4.29,0.98c0.36,0.05,0.54,0.37,0.54,0.96
					c0,0.66-0.18,0.99-0.54,0.99c-1.52,0-3.23-0.07-5.14-0.21c-1.81-0.14-3.41-0.21-4.8-0.21s-3.09,0.07-5.1,0.21
					c-2.11,0.14-3.92,0.21-5.44,0.21c-0.36,0-0.54-0.33-0.54-0.99c0-0.59,0.18-0.91,0.54-0.96c2.74-0.33,4.61-0.87,5.6-1.6
					c0.99-0.74,1.48-2.21,1.48-4.41v-33.47c0-1.66-0.2-2.83-0.59-3.5c-0.4-0.68-1.1-1.21-2.09-1.6c-1-0.39-2.46-0.71-4.39-0.94
					c-0.36,0-0.54-0.33-0.54-0.98c0-0.65,0.18-0.98,0.54-0.98c1.52,0,3.33,0.07,5.44,0.21c2.02,0.14,3.72,0.21,5.1,0.21
					s2.98-0.07,4.8-0.21c1.91-0.14,3.62-0.21,5.14-0.21c0.36,0,0.54,0.33,0.54,0.98c0,0.65-0.18,0.98-0.54,0.98
					c-1.77,0.21-3.11,0.5-4.02,0.85c-0.91,0.36-1.54,0.84-1.91,1.44c-0.36,0.61-0.54,1.85-0.54,3.75v15.35h25.96v-15.35
					c0-1.59-0.13-2.73-0.39-3.42c-0.26-0.69-0.85-1.24-1.77-1.65c-0.92-0.42-2.35-0.74-4.3-0.98c-0.36,0-0.54-0.33-0.54-0.98
					c0-0.65,0.18-0.98,0.54-0.98c1.52,0,3.23,0.07,5.14,0.21c1.81,0.14,3.41,0.21,4.8,0.21c1.38,0,3.07-0.07,5.07-0.21
					c2.11-0.14,3.93-0.21,5.48-0.21c0.36,0,0.54,0.33,0.54,0.98c0,0.65-0.18,0.98-0.54,0.98c-1.93,0.24-3.39,0.55-4.39,0.94
					c-1,0.39-1.7,0.93-2.09,1.6c-0.4,0.67-0.6,1.84-0.6,3.5v33.47c0,2.2,0.49,3.68,1.48,4.41c0.99,0.73,2.85,1.27,5.6,1.6
					C198.12,341.11,198.31,341.43,198.31,342.02z"/>
				<path d="M250.09,342.02c0,0.66-0.18,0.99-0.54,0.99c-1.57,0-3.34-0.07-5.31-0.21c-1.7-0.14-3.16-0.21-4.36-0.21
					c-1.39,0-3.1,0.07-5.14,0.21c-2.15,0.14-3.99,0.21-5.51,0.21c-0.36,0-0.54-0.33-0.54-0.98c0-0.65,0.14-0.98,0.41-0.98
					c2.02-0.1,3.47-0.37,4.36-0.84c0.88-0.46,1.33-1.19,1.33-2.16c0-0.62-0.23-1.61-0.68-2.97l-3.88-11.91h-13.97l-3.89,11.02
					c-0.5,1.48-0.75,2.62-0.75,3.43c0,2.09,1.84,3.24,5.51,3.43c0.27,0,0.41,0.33,0.41,0.98c0,0.65-0.18,0.98-0.55,0.98
					c-1.36,0-2.87-0.07-4.52-0.21c-1.56-0.14-2.96-0.21-4.18-0.21c-0.98,0-2.2,0.07-3.67,0.21c-1.54,0.14-2.85,0.21-3.94,0.21
					c-0.34,0-0.51-0.3-0.51-0.89c0-0.66,0.26-1.02,0.78-1.07c1.88-0.19,3.37-0.73,4.47-1.63c1.1-0.9,2.24-2.74,3.42-5.51
					l15.92-40.84c0.14-0.38,0.45-0.57,0.95-0.57c0.54,0,0.88,0.18,1.02,0.53l14.05,40.87c0.79,2.3,1.87,3.99,3.21,5.08
					c1.35,1.09,3.16,1.78,5.43,2.06C249.86,341.11,250.09,341.43,250.09,342.02z M229.46,320.91l-5.97-18.11l-6.44,18.11H229.46z"/>
				<path d="M314.9,342.02c0,0.66-0.18,0.99-0.54,0.99c-1.52,0-3.37-0.07-5.55-0.21c-2.08-0.14-3.81-0.21-5.19-0.21
					c-1.38,0-3.06,0.07-5.05,0.21c-2.09,0.14-3.89,0.21-5.41,0.21c-0.41,0-0.61-0.33-0.61-0.99c0-0.59,0.18-0.91,0.54-0.96
					c2.65-0.33,4.46-0.84,5.43-1.53c0.96-0.69,1.45-1.99,1.45-3.91v-0.57l-1.43-34.44l-16.4,42.97c-0.14,0.38-0.45,0.57-0.95,0.57
					c-0.52,0-0.83-0.19-0.92-0.57l-15.45-41.26l-2.45,32.76c-0.05,0.4-0.07,0.76-0.07,1.07c0,1.59,0.52,2.73,1.56,3.42
					c1.04,0.69,2.9,1.19,5.58,1.49c0.32,0.05,0.48,0.37,0.48,0.98c0,0.65-0.2,0.98-0.61,0.98c-1.18,0-2.79-0.07-4.83-0.21
					c-1.9-0.14-3.37-0.21-4.4-0.21c-1.13,0-2.67,0.07-4.62,0.21c-1.88,0.14-3.33,0.21-4.35,0.21c-0.32,0-0.48-0.33-0.48-0.99
					c0-0.59,0.2-0.91,0.61-0.96c2.86-0.35,4.84-0.91,5.94-1.67c1.1-0.76,1.73-2.21,1.89-4.34l3.54-33.47
					c0.02-0.43,0.03-0.8,0.03-1.14c0-1.54-0.52-2.66-1.56-3.34c-1.04-0.69-2.94-1.21-5.68-1.56c-0.32,0-0.48-0.33-0.48-0.98
					c0-0.23,0.07-0.45,0.2-0.66c0.14-0.21,0.27-0.32,0.41-0.32c0.84,0,2.03,0.07,3.57,0.21c1.32,0.14,2.28,0.21,2.89,0.21
					c0.79,0,1.93-0.07,3.4-0.21c1.52-0.14,2.7-0.21,3.54-0.21l14.59,39.47l15.07-39.47c0.9,0,2.09,0.07,3.55,0.21
					c1.33,0.14,2.38,0.21,3.15,0.21c0.95,0,2.1-0.07,3.44-0.21c1.38-0.14,2.57-0.21,3.57-0.21c0.41,0,0.61,0.33,0.61,0.98
					c0,0.65-0.18,0.98-0.54,0.98c-2.65,0.33-4.46,0.84-5.43,1.53c-0.96,0.69-1.45,1.99-1.45,3.91v0.61l1.56,33.47
					c0.07,1.66,0.31,2.82,0.73,3.49c0.42,0.66,1.14,1.19,2.16,1.58c1.02,0.39,2.48,0.71,4.39,0.94
					C314.72,341.11,314.9,341.43,314.9,342.02z"/>
				<path d="M356.81,308.08c0,4.17-1.53,7.67-4.6,10.5c-3.07,2.83-6.87,4.25-11.4,4.25c-2.72,0-5.39-0.12-8.02-0.35v12.58
					c0,1.66,0.2,2.82,0.6,3.48c0.4,0.66,1.09,1.19,2.08,1.58c0.99,0.39,2.43,0.71,4.34,0.94c0.36,0.05,0.54,0.37,0.54,0.96
					c0,0.66-0.18,0.99-0.54,0.99c-1.52,0-3.32-0.07-5.41-0.21c-2-0.14-3.69-0.21-5.07-0.21s-3.09,0.07-5.1,0.21
					c-2.11,0.14-3.92,0.21-5.44,0.21c-0.36,0-0.54-0.33-0.54-0.99c0-0.59,0.18-0.91,0.54-0.96c2.74-0.33,4.61-0.87,5.6-1.6
					c0.99-0.74,1.48-2.21,1.48-4.41v-33.47c0-1.66-0.2-2.83-0.6-3.5c-0.4-0.68-1.1-1.21-2.09-1.6c-1-0.39-2.46-0.71-4.39-0.94
					c-0.36,0-0.54-0.33-0.54-0.98c0-0.65,0.18-0.98,0.54-0.98c1.52,0,3.33,0.07,5.44,0.21c2.02,0.14,3.72,0.21,5.1,0.21
					c1.38,0,3.07-0.07,5.06-0.21c2.08-0.14,3.89-0.21,5.4-0.21c5.57,0,9.8,1.23,12.69,3.7
					C355.37,299.74,356.81,303.34,356.81,308.08z M349.29,308.08c0-3.8-0.89-6.77-2.67-8.91c-1.78-2.14-4.14-3.21-7.09-3.21
					c-1.77,0-3.14,0.14-4.1,0.43s-1.64,0.75-2.04,1.39c-0.4,0.64-0.6,1.91-0.6,3.81v16.36c0,1.02,0.31,1.71,0.92,2.05
					c0.61,0.34,1.94,0.52,3.98,0.52c3.7,0,6.55-1.1,8.57-3.31C348.28,314.99,349.29,311.95,349.29,308.08z"/>
				<path d="M384.98,342.02c0,0.66-0.18,0.99-0.54,0.99c-1.52,0-3.32-0.07-5.41-0.21c-2-0.14-3.69-0.21-5.07-0.21
					c-1.38,0-3.07,0.07-5.07,0.21c-2.11,0.14-3.94,0.21-5.48,0.21c-0.36,0-0.54-0.33-0.54-0.99c0-0.59,0.18-0.91,0.54-0.96
					c2.74-0.33,4.61-0.87,5.6-1.6c0.99-0.74,1.48-2.21,1.48-4.41v-33.47c0-1.66-0.2-2.83-0.6-3.5c-0.4-0.68-1.09-1.21-2.09-1.6
					c-1-0.39-2.46-0.71-4.39-0.94c-0.36,0-0.54-0.33-0.54-0.98c0-0.65,0.18-0.98,0.54-0.98c1.54,0,3.37,0.07,5.48,0.21
					c2,0.14,3.69,0.21,5.07,0.21c1.38,0,3.07-0.07,5.07-0.21c2.09-0.14,3.89-0.21,5.41-0.21c0.36,0,0.54,0.33,0.54,0.98
					c0,0.65-0.18,0.98-0.54,0.98c-1.91,0.24-3.36,0.55-4.36,0.94c-1,0.39-1.69,0.92-2.08,1.58c-0.39,0.66-0.58,1.84-0.58,3.52v33.47
					c0,1.64,0.19,2.79,0.58,3.47c0.39,0.68,1.07,1.21,2.06,1.6c0.99,0.39,2.43,0.71,4.34,0.94
					C384.79,341.11,384.98,341.43,384.98,342.02z"/>
				<path d="M442.17,318.56c0,7.51-2.31,13.65-6.94,18.43c-4.63,4.77-10.67,7.16-18.13,7.16s-13.5-2.39-18.12-7.16
					c-4.62-4.77-6.92-10.92-6.92-18.43c0-7.54,2.32-13.76,6.97-18.68c4.65-4.91,10.67-7.37,18.06-7.37c7.42,0,13.45,2.46,18.1,7.37
					C439.84,304.8,442.17,311.03,442.17,318.56z M434.68,318.56c0-6.99-1.62-12.7-4.85-17.13c-3.23-4.43-7.48-6.65-12.74-6.65
					c-5.28,0-9.53,2.22-12.74,6.65c-3.21,4.43-4.81,10.14-4.81,17.13c0,6.94,1.59,12.56,4.78,16.86c3.19,4.3,7.45,6.45,12.78,6.45
					c5.31,0,9.57-2.15,12.78-6.45C433.08,331.13,434.68,325.51,434.68,318.56z"/>
				<path d="M503.61,294.58c0,0.59-0.18,0.91-0.54,0.96c-2.83,0.33-4.78,0.88-5.83,1.64c-1.06,0.76-1.61,2.22-1.65,4.38l-0.75,41.89
					c0,0.47-0.27,0.71-0.82,0.71c-0.27,0-0.64-0.19-1.09-0.57l-35.08-41.41l-0.48,32.88c-0.02,0.19-0.03,0.37-0.03,0.53
					c0,1.8,0.54,3.07,1.63,3.82c1.09,0.75,3.05,1.3,5.88,1.65c0.36,0.05,0.54,0.37,0.54,0.96c0,0.66-0.18,0.99-0.54,0.99
					c-1.18,0-2.8-0.07-4.86-0.21c-1.93-0.14-3.42-0.21-4.46-0.21c-1.13,0-2.67,0.07-4.59,0.21c-1.86,0.14-3.3,0.21-4.32,0.21
					c-0.36,0-0.55-0.33-0.55-0.99c0-0.59,0.2-0.91,0.61-0.96c2.81-0.35,4.74-0.91,5.78-1.65c1.04-0.75,1.6-2.2,1.67-4.36l1.19-33.47
					v-0.32c0-1.92-0.53-3.26-1.6-4.02c-1.07-0.76-3.05-1.33-5.95-1.71c-0.32,0-0.48-0.33-0.48-0.98c0-0.65,0.18-0.98,0.54-0.98
					c0.79,0,1.91,0.07,3.33,0.21c1.27,0.14,2.22,0.21,2.86,0.21c0.79,0,1.75-0.07,2.86-0.21c1.13-0.14,2.11-0.21,2.93-0.21
					l32.76,38.28v-30.3c0-2.02-0.55-3.44-1.65-4.25c-1.1-0.82-3.14-1.41-6.11-1.76c-0.36-0.05-0.54-0.37-0.54-0.96
					c0-0.66,0.18-1,0.54-1c1.22,0,2.86,0.07,4.9,0.21c1.91,0.14,3.38,0.21,4.42,0.21c1.13,0,2.66-0.07,4.59-0.21
					c1.86-0.14,3.3-0.21,4.32-0.21C503.43,293.58,503.61,293.91,503.61,294.58z"/>
			</g>
		</g>
		<g>
			<g>
				<path d="M279.14,420.67c-1.11,5.13-2.18,10.59-3.23,16.36c-1.75,0-4.93,0.43-9.54,1.3c-5.9,1.12-10.26,1.68-13.08,1.68
					c-7,0-13.15-1.44-18.43-4.33c-5.28-2.89-9.4-7.02-12.35-12.39c-2.95-5.37-4.42-11.35-4.42-17.93c0-6.48,1.56-12.46,4.68-17.93
					c3.12-5.47,7.41-9.73,12.88-12.78c5.47-3.05,11.63-4.57,18.47-4.57c2.89,0,6.76,0.32,11.61,0.96c3.78,0.51,6.53,0.77,8.25,0.77
					c0.4,4.49,1.11,9.95,2.12,16.36c0,0.51-0.49,0.77-1.47,0.77c-0.61,0-0.98-0.26-1.11-0.77c-1.11-4.36-3.49-7.96-7.14-10.78
					c-3.66-2.82-7.86-4.24-12.62-4.24c-7.22,0-13.28,3.11-18.17,9.34c-4.9,6.23-7.35,13.84-7.35,22.86c0,8.76,2.43,16.21,7.28,22.36
					c4.85,6.15,10.78,9.22,17.78,9.22c10.96,0,18.73-5.42,23.31-16.27c0.21-0.51,0.63-0.77,1.24-0.77
					C278.71,419.9,279.14,420.15,279.14,420.67z"/>
				<path d="M358.75,437.13c0,0.9-0.25,1.35-0.74,1.35c-2.09,0-4.56-0.1-7.42-0.29c-2.7-0.19-4.99-0.29-6.86-0.29
					s-4.04,0.1-6.5,0.29c-2.58,0.19-4.9,0.29-6.96,0.29c-0.49,0-0.74-0.45-0.74-1.35c0-0.8,0.26-1.23,0.78-1.3
					c2.58-0.32,4.5-0.76,5.76-1.32c1.26-0.56,2.07-1.3,2.42-2.21c0.35-0.91,0.53-2.45,0.53-4.6v-21.46h-35.15v21.46
					c0,2.15,0.18,3.68,0.53,4.6s1.16,1.65,2.42,2.21c1.26,0.56,3.19,1,5.81,1.32c0.49,0.07,0.74,0.5,0.74,1.3
					c0,0.9-0.25,1.35-0.74,1.35c-2.06,0-4.38-0.1-6.96-0.29c-2.46-0.19-4.62-0.29-6.5-0.29c-1.87,0-4.18,0.1-6.91,0.29
					c-2.86,0.19-5.31,0.29-7.37,0.29c-0.49,0-0.74-0.45-0.74-1.35c0-0.8,0.25-1.23,0.74-1.3c3.72-0.45,6.24-1.17,7.58-2.17
					c1.34-1,2-2.99,2-5.97v-45.33c0-2.25-0.27-3.83-0.81-4.74c-0.54-0.91-1.48-1.64-2.83-2.17c-1.35-0.53-3.33-0.96-5.94-1.28
					c-0.49,0-0.74-0.44-0.74-1.32c0-0.88,0.25-1.32,0.74-1.32c2.06,0,4.51,0.1,7.37,0.29c2.73,0.19,5.04,0.29,6.91,0.29
					c1.87,0,4.04-0.1,6.5-0.29c2.58-0.19,4.9-0.29,6.96-0.29c0.49,0,0.74,0.44,0.74,1.32c0,0.88-0.25,1.32-0.74,1.32
					c-2.4,0.29-4.21,0.67-5.44,1.16c-1.23,0.48-2.09,1.13-2.58,1.95c-0.49,0.82-0.74,2.51-0.74,5.08v20.79h35.15v-20.79
					c0-2.15-0.18-3.69-0.53-4.62c-0.35-0.93-1.15-1.68-2.4-2.24c-1.24-0.56-3.19-1-5.83-1.32c-0.49,0-0.74-0.44-0.74-1.32
					c0-0.88,0.25-1.32,0.74-1.32c2.06,0,4.38,0.1,6.96,0.29c2.46,0.19,4.62,0.29,6.5,0.29s4.16-0.1,6.86-0.29
					c2.86-0.19,5.33-0.29,7.42-0.29c0.49,0,0.74,0.44,0.74,1.32c0,0.88-0.25,1.32-0.74,1.32c-2.61,0.32-4.59,0.75-5.94,1.28
					c-1.35,0.53-2.3,1.25-2.83,2.17c-0.54,0.91-0.81,2.5-0.81,4.74v45.33c0,2.99,0.67,4.98,2,5.97c1.34,0.99,3.86,1.72,7.58,2.17
					C358.5,435.89,358.75,436.33,358.75,437.13z"/>
				<path d="M428.13,437.13c0,0.9-0.25,1.35-0.74,1.35c-1.14,0-3-0.11-5.58-0.34c-1.87-0.16-3.12-0.24-3.73-0.24
					c-0.89,0-2.29,0.1-4.19,0.29c-1.9,0.19-3.3,0.29-4.19,0.29l-13.96-23.74c-1.97-3.29-3.56-5.4-4.77-6.33
					c-1.21-0.93-3.65-1.4-7.3-1.4v20.7c0,2.21,0.27,3.78,0.81,4.69c0.54,0.91,1.49,1.64,2.86,2.16c1.37,0.53,3.32,0.96,5.87,1.28
					c0.52,0.07,0.78,0.5,0.78,1.3c0,0.9-0.25,1.35-0.74,1.35c-2.06,0-4.52-0.1-7.37-0.29c-2.73-0.19-5.04-0.29-6.91-0.29
					c-1.87,0-4.16,0.1-6.86,0.29c-2.83,0.19-5.27,0.29-7.33,0.29c-0.49,0-0.74-0.45-0.74-1.35c0-0.8,0.25-1.23,0.74-1.3
					c2.55-0.32,4.5-0.75,5.85-1.28c1.35-0.53,2.3-1.24,2.83-2.14c0.54-0.9,0.81-2.47,0.81-4.72v-45.33c0-2.21-0.25-3.78-0.76-4.7
					c-0.51-0.91-1.44-1.64-2.79-2.19c-1.35-0.55-3.33-0.98-5.94-1.3c-0.49,0-0.74-0.44-0.74-1.32c0-0.88,0.25-1.32,0.74-1.32
					c2.06,0,4.5,0.1,7.33,0.29c2.7,0.19,4.99,0.29,6.86,0.29c1.87,0,4.18-0.1,6.91-0.29c2.86-0.19,5.31-0.29,7.37-0.29
					c6.85,0,12.15,1.5,15.89,4.49c3.75,3,5.62,7.2,5.62,12.62c0,3.42-1.24,6.6-3.71,9.53c-2.48,2.93-5.82,5.19-10.04,6.77
					l14.19,24.14c1.23,2.11,2.82,3.67,4.75,4.67c1.94,1.01,4.45,1.7,7.53,2.08C427.92,435.89,428.13,436.33,428.13,437.13z
					 M404.64,388.85c0-9.4-3.92-14.1-11.75-14.1c-2.58,0-4.54,0.22-5.87,0.65c-1.34,0.43-2.23,1.12-2.67,2.05s-0.67,2.58-0.67,4.93
					v21.49c1.78,0.26,4.02,0.39,6.73,0.39c4.95,0,8.55-1.22,10.83-3.67C403.5,398.14,404.64,394.23,404.64,388.85z"/>
				<path d="M487.75,422.59c-2.49,5.55-4.52,10.84-6.08,15.88c-11.58-0.39-19.83-0.58-24.74-0.58c-4.85,0-13.08,0.19-24.69,0.58
					c-0.49,0-0.74-0.45-0.74-1.35c0-0.8,0.25-1.23,0.74-1.3c2.55-0.32,4.5-0.75,5.85-1.28c1.35-0.53,2.3-1.24,2.83-2.14
					c0.54-0.9,0.81-2.47,0.81-4.72v-45.33c0-2.21-0.25-3.78-0.76-4.7c-0.51-0.91-1.44-1.64-2.79-2.19c-1.35-0.55-3.33-0.98-5.94-1.3
					c-0.49,0-0.74-0.44-0.74-1.32c0-0.88,0.25-1.32,0.74-1.32c7.74,0.39,15.66,0.58,23.77,0.58c8.17,0,16.11-0.19,23.82-0.58
					c0.71,4.97,1.74,9.88,3.09,14.73c0,0.64-0.54,0.96-1.61,0.96c-0.52,0-0.84-0.22-0.97-0.67c-2.27-7.57-7.13-11.36-14.56-11.36
					h-9.31c-3.56,0-5.34,1.92-5.34,5.77v21.42h11.61c3.09,0,5.18-0.74,6.28-2.21c1.1-1.48,1.86-4.09,2.29-7.85
					c0-0.51,0.42-0.77,1.27-0.77c0.84,0,1.27,0.26,1.27,0.77c0,1.61-0.09,3.63-0.28,6.06c-0.18,2.34-0.28,4.25-0.28,5.73
					c0,1.51,0.09,3.43,0.28,5.77c0.18,2.5,0.28,4.56,0.28,6.16c0,0.51-0.42,0.77-1.27,0.77c-0.84,0-1.27-0.26-1.27-0.77
					c-0.46-3.91-1.27-6.66-2.43-8.23c-1.16-1.57-3.2-2.36-6.14-2.36h-11.61v23.68c0,3.79,1.78,5.68,5.34,5.68h10.04
					c3.65,0,7.28-1.24,10.87-3.73c3.59-2.49,6.24-5.59,7.92-9.31c0.12-0.29,0.38-0.43,0.78-0.43c0.43,0,0.81,0.12,1.15,0.36
					C487.58,421.94,487.75,422.24,487.75,422.59z"/>
				<path d="M593.2,437.13c0,0.9-0.25,1.35-0.74,1.35c-2.06,0-4.5-0.1-7.33-0.29c-2.7-0.19-4.99-0.29-6.86-0.29
					c-1.87,0-4.16,0.1-6.86,0.29c-2.86,0.19-5.33,0.29-7.42,0.29c-0.49,0-0.74-0.45-0.74-1.35c0-0.8,0.25-1.23,0.74-1.3
					c3.72-0.45,6.24-1.17,7.58-2.17c1.34-1,2-2.99,2-5.97v-45.33c0-2.25-0.27-3.83-0.81-4.74s-1.48-1.64-2.83-2.17
					s-3.33-0.96-5.94-1.28c-0.49,0-0.74-0.44-0.74-1.32c0-0.88,0.25-1.32,0.74-1.32c2.09,0,4.56,0.1,7.42,0.29
					c2.7,0.19,4.99,0.29,6.86,0.29c1.87,0,4.16-0.1,6.86-0.29c2.83-0.19,5.27-0.29,7.33-0.29c0.49,0,0.74,0.44,0.74,1.32
					c0,0.88-0.25,1.32-0.74,1.32c-2.58,0.32-4.55,0.75-5.9,1.28c-1.35,0.53-2.29,1.25-2.81,2.14c-0.52,0.9-0.78,2.49-0.78,4.77
					v45.33c0,2.21,0.26,3.78,0.78,4.69c0.52,0.92,1.45,1.64,2.79,2.17s3.29,0.96,5.87,1.28C592.94,435.89,593.2,436.33,593.2,437.13
					z"/>
				<path d="M657.56,422.59c-2.49,5.55-4.52,10.84-6.08,15.88c-11.58-0.39-19.83-0.58-24.74-0.58c-4.85,0-13.08,0.19-24.69,0.58
					c-0.49,0-0.74-0.45-0.74-1.35c0-0.8,0.25-1.23,0.74-1.3c2.55-0.32,4.5-0.75,5.85-1.28c1.35-0.53,2.3-1.24,2.83-2.14
					c0.54-0.9,0.81-2.47,0.81-4.72v-45.33c0-2.21-0.25-3.78-0.76-4.7c-0.51-0.91-1.44-1.64-2.79-2.19c-1.35-0.55-3.33-0.98-5.94-1.3
					c-0.49,0-0.74-0.44-0.74-1.32c0-0.88,0.25-1.32,0.74-1.32c7.74,0.39,15.66,0.58,23.77,0.58c8.17,0,16.11-0.19,23.82-0.58
					c0.71,4.97,1.74,9.88,3.09,14.73c0,0.64-0.54,0.96-1.61,0.96c-0.52,0-0.84-0.22-0.97-0.67c-2.27-7.57-7.13-11.36-14.56-11.36
					h-9.31c-3.56,0-5.34,1.92-5.34,5.77v21.42h11.61c3.09,0,5.18-0.74,6.28-2.21c1.1-1.48,1.86-4.09,2.29-7.85
					c0-0.51,0.42-0.77,1.27-0.77s1.27,0.26,1.27,0.77c0,1.61-0.09,3.63-0.28,6.06c-0.18,2.34-0.28,4.25-0.28,5.73
					c0,1.51,0.09,3.43,0.28,5.77c0.18,2.5,0.28,4.56,0.28,6.16c0,0.51-0.42,0.77-1.27,0.77s-1.27-0.26-1.27-0.77
					c-0.46-3.91-1.27-6.66-2.43-8.23c-1.16-1.57-3.2-2.36-6.14-2.36h-11.61v23.68c0,3.79,1.78,5.68,5.34,5.68h10.04
					c3.65,0,7.28-1.24,10.87-3.73c3.59-2.49,6.24-5.59,7.92-9.31c0.12-0.29,0.38-0.43,0.78-0.43c0.43,0,0.81,0.12,1.15,0.36
					C657.4,421.94,657.56,422.24,657.56,422.59z"/>
				<path d="M737.63,372.88c0,0.8-0.25,1.23-0.74,1.3c-3.84,0.45-6.47,1.19-7.9,2.21c-1.43,1.03-2.17,3.01-2.23,5.93l-1.01,56.73
					c0,0.64-0.37,0.96-1.1,0.96c-0.37,0-0.86-0.26-1.48-0.77l-47.5-56.07l-0.64,44.52c-0.03,0.26-0.05,0.5-0.05,0.72
					c0,2.44,0.74,4.16,2.21,5.17c1.47,1.01,4.13,1.76,7.97,2.24c0.49,0.07,0.74,0.5,0.74,1.3c0,0.9-0.25,1.35-0.74,1.35
					c-1.6,0-3.79-0.1-6.59-0.29c-2.61-0.19-4.62-0.29-6.04-0.29c-1.54,0-3.61,0.1-6.22,0.29c-2.52,0.19-4.47,0.29-5.85,0.29
					c-0.49,0-0.74-0.45-0.74-1.35c0-0.8,0.28-1.23,0.83-1.3c3.81-0.48,6.42-1.23,7.83-2.24c1.41-1.01,2.16-2.98,2.26-5.9l1.61-45.33
					v-0.43c0-2.6-0.72-4.42-2.17-5.44c-1.44-1.03-4.13-1.8-8.06-2.31c-0.43,0-0.64-0.44-0.64-1.32c0-0.88,0.25-1.32,0.74-1.32
					c1.07,0,2.58,0.1,4.51,0.29c1.72,0.19,3.01,0.29,3.87,0.29c1.07,0,2.36-0.1,3.87-0.29c1.54-0.19,2.86-0.29,3.96-0.29
					l44.37,51.84v-41.04c0-2.73-0.74-4.65-2.23-5.76c-1.49-1.11-4.25-1.91-8.27-2.39c-0.49-0.07-0.74-0.5-0.74-1.3
					c0-0.9,0.25-1.35,0.74-1.35c1.66,0,3.87,0.1,6.63,0.29c2.58,0.19,4.58,0.29,5.99,0.29c1.54,0,3.61-0.1,6.22-0.29
					c2.52-0.19,4.47-0.29,5.85-0.29C737.39,371.53,737.63,371.98,737.63,372.88z"/>
			</g>
		</g>
	</g>
</g>
</svg>
